<?xml version="1.0" standalone="no"?>
<!DOCTYPE svg PUBLIC "-//W3C//DTD SVG 20010904//EN"
 "http://www.w3.org/TR/2001/REC-SVG-20010904/DTD/svg10.dtd">
<svg version="1.0" xmlns="http://www.w3.org/2000/svg"
 width="199.000000pt" height="199.000000pt" viewBox="0 0 199.000000 199.000000"
 preserveAspectRatio="xMidYMid meet">
<metadata>
Created by potrace 1.11, written by Peter Selinger 2001-2013
</metadata>
<g transform="translate(0.000000,199.000000) scale(0.100000,-0.100000)"
fill="#000000" stroke="none">
<path d="M912 1971 c-53 -27 -88 -67 -102 -114 -9 -33 -12 -204 -13 -673 l0
-628 -29 -28 c-42 -41 -80 -131 -83 -196 -8 -185 123 -325 306 -326 67 -1 83
3 140 33 76 39 113 80 146 162 20 49 24 74 20 123 -6 97 -23 137 -80 203 l-32
36 -1 626 c0 344 -4 643 -8 663 -10 48 -75 114 -124 128 -51 14 -101 11 -140
-9z m174 -46 c19 -14 41 -39 49 -55 15 -30 26 -133 16 -148 -3 -4 -77 -8 -163
-7 l-158 0 0 57 c0 31 6 70 13 85 16 37 48 73 64 73 7 0 13 4 13 9 0 30 121
20 166 -14z"/>
<path d="M888 1780 c-25 -3 -35 -9 -30 -16 11 -18 272 -15 272 3 0 7 -8 14
-17 14 -60 4 -194 3 -225 -1z"/>
</g>
</svg>
